<svg xmlns="http://www.w3.org/2000/svg" viewBox="0 0 1600 900" fill="none">
  <defs>
    <radialGradient id="glowCenter" cx="0" cy="0" r="1" gradientUnits="userSpaceOnUse" gradientTransform="translate(800 450) rotate(90) scale(280 280)">
      <stop stop-color="#B69352" stop-opacity=".22"/>
      <stop offset=".45" stop-color="#7F1D1D" stop-opacity=".12"/>
      <stop offset="1" stop-color="#0B090B" stop-opacity="0"/>
    </radialGradient>
    <radialGradient id="leftGlow" cx="0" cy="0" r="1" gradientUnits="userSpaceOnUse" gradientTransform="translate(220 700) rotate(90) scale(180 180)">
      <stop stop-color="#8E1F24" stop-opacity=".16"/>
      <stop offset="1" stop-color="#0B090B" stop-opacity="0"/>
    </radialGradient>
    <radialGradient id="rightGlow" cx="0" cy="0" r="1" gradientUnits="userSpaceOnUse" gradientTransform="translate(1360 220) rotate(90) scale(180 180)">
      <stop stop-color="#B69352" stop-opacity=".12"/>
      <stop offset="1" stop-color="#0B090B" stop-opacity="0"/>
    </radialGradient>
    <filter id="blurSoft" x="-20%" y="-20%" width="140%" height="140%">
      <feGaussianBlur stdDeviation="12"/>
    </filter>
  </defs>

  <rect width="1600" height="900" fill="url(#glowCenter)"/>
  <rect width="1600" height="900" fill="url(#leftGlow)"/>
  <rect width="1600" height="900" fill="url(#rightGlow)"/>

  <g opacity=".22" stroke="#A88447">
    <circle cx="800" cy="450" r="190"/>
    <circle cx="800" cy="450" r="250" opacity=".7"/>
    <circle cx="800" cy="450" r="312" opacity=".45"/>
    <path d="M800 172V728" opacity=".25"/>
    <path d="M522 450H1078" opacity=".25"/>
    <path d="M616 266L984 634" opacity=".2"/>
    <path d="M984 266L616 634" opacity=".2"/>
  </g>

  <g opacity=".14" stroke="#7F1D1D">
    <path d="M800 138L858 330L1062 330L896 448L960 644L800 526L640 644L704 448L538 330L742 330L800 138Z"/>
  </g>

  <g opacity=".16">
    <circle cx="1320" cy="210" r="94" stroke="#7A5D31"/>
    <circle cx="1320" cy="210" r="66" stroke="#7A5D31" opacity=".45"/>
    <path d="M1320 126L1348 210L1320 294L1292 210L1320 126Z" stroke="#7F1D1D" opacity=".45"/>
  </g>

  <g opacity=".14">
    <circle cx="280" cy="700" r="102" stroke="#7A5D31"/>
    <circle cx="280" cy="700" r="58" stroke="#7A5D31" opacity=".4"/>
    <path d="M220 760L340 640" stroke="#7F1D1D" opacity=".45"/>
    <path d="M220 640L340 760" stroke="#7F1D1D" opacity=".3"/>
  </g>

  <g filter="url(#blurSoft)" opacity=".13">
    <ellipse cx="780" cy="438" rx="230" ry="90" fill="#7F1D1D"/>
    <ellipse cx="850" cy="480" rx="210" ry="80" fill="#B69352"/>
  </g>
</svg>
